<svg width="512" height="512" viewBox="0 0 512 512" fill="none" xmlns="http://www.w3.org/2000/svg">
<path d="M56.6579 94.4026L99.2922 114.284C103.255 159.734 146.833 227.684 190 275.5C103.334 230.915 33.7971 143.416 56.6579 94.4026Z" fill="black"/>
<path fill-rule="evenodd" clip-rule="evenodd" d="M120.53 259.999C136.581 271.048 154.097 281.083 172.692 289.761C191.288 298.44 238.925 296.96 238.925 296.96C259.42 296.96 278.707 288.978 293.222 274.478C312.192 255.493 318.93 229.059 313.789 204.595C303.59 204.344 293.873 202.194 285.03 198.328C294.011 217.329 290.836 240.645 275.128 256.358C255.119 276.342 222.72 276.357 202.721 256.358C129.429 183.066 102.395 91.2026 142.397 51.2L243.108 151.916C240.609 144.348 238.93 136.397 238.93 128C238.93 85.5808 273.311 51.2 315.73 51.2C358.149 51.2 392.53 85.5808 392.53 128C392.53 137.098 390.666 145.715 387.763 153.815L441.5 207L430 219L380.5 171C380.379 171.172 380.258 171.343 380.139 171.511C374.374 179.684 371.206 184.174 356.987 192.599C346.747 280.397 276.024 349.65 187.546 357.55C166.298 386.499 153.595 422.113 153.595 460.8C99.2307 406.436 88.3098 325.284 120.53 259.999ZM302.197 100L347 125.797C339.367 139.912 322.732 141.658 312.584 135.97C292.891 124.933 302.197 100 302.197 100Z" fill="black"/>
</svg>
