<?xml version="1.0" standalone="no"?>
<!DOCTYPE svg PUBLIC "-//W3C//DTD SVG 20010904//EN"
 "http://www.w3.org/TR/2001/REC-SVG-20010904/DTD/svg10.dtd">
<svg version="1.0" xmlns="http://www.w3.org/2000/svg"
 width="250.000000pt" height="250.000000pt" viewBox="0 0 250.000000 250.000000"
 preserveAspectRatio="xMidYMid meet">
<metadata>
Created by potrace 1.11, written by Peter Selinger 2001-2013
</metadata>
<g transform="translate(0.000000,250.000000) scale(0.100000,-0.100000)"
fill="#000000" stroke="none">
<path d="M1901 1828 c5 -35 11 -81 14 -103 3 -22 8 -66 11 -98 l6 -58 -43 22
c-174 89 -435 122 -655 84 -320 -56 -581 -218 -765 -472 -85 -119 -241 -321
-365 -474 l-103 -126 57 13 c71 16 230 30 392 34 329 9 1134 0 1390 -15 161
-10 273 -11 330 -3 145 19 281 133 315 263 40 154 -2 334 -104 444 l-40 44 33
141 c19 77 37 157 41 176 l7 35 -28 -26 c-187 -167 -235 -209 -242 -209 -8 0
-225 341 -238 374 -14 36 -20 12 -13 -46z m166 -637 l42 42 25 -29 25 -29 -40
-39 -40 -40 41 -41 40 -41 -25 -24 -25 -24 -40 39 -40 39 -27 -25 c-16 -13
-32 -30 -36 -36 -12 -19 -28 -16 -54 9 l-23 22 42 43 42 43 -39 40 -39 40 24
25 24 26 40 -41 40 -40 43 41z"/>
</g>
</svg>
