<svg width="390" height="410" viewBox="0 0 390 410" fill="none" xmlns="http://www.w3.org/2000/svg">
<path d="M4.65793 43.4026L47.2922 63.2835C51.255 108.734 94.8333 176.684 138 224.5C51.3338 179.915 -18.2029 92.4163 4.65793 43.4026Z" fill="white"/>
<path fill-rule="evenodd" clip-rule="evenodd" d="M68.5299 208.999C84.5811 220.048 102.097 230.083 120.692 238.761C139.288 247.44 186.925 245.96 186.925 245.96C207.42 245.96 226.707 237.978 241.222 223.478C260.192 204.493 266.93 178.059 261.789 153.595C251.59 153.344 241.873 151.194 233.03 147.328C242.011 166.329 238.836 189.645 223.128 205.358C203.119 225.342 170.72 225.357 150.721 205.358C77.4285 132.066 50.3948 40.2026 90.3974 0.200012L191.108 100.916C188.609 93.3482 186.93 85.3968 186.93 77C186.93 34.5808 221.311 0.200012 263.73 0.200012C306.149 0.200012 340.53 34.5808 340.53 77C340.53 86.0983 338.666 94.7152 335.763 102.815L389.5 156L378 168L328.5 120C328.379 120.172 328.258 120.343 328.139 120.511C322.374 128.684 319.206 133.174 304.987 141.599C294.747 229.397 224.024 298.65 135.546 306.55C114.298 335.499 101.595 371.113 101.595 409.8C47.2307 355.436 36.3098 274.284 68.5299 208.999ZM250.197 49L295 74.7965C287.367 88.9121 270.732 90.6579 260.584 84.9701C240.891 73.9325 250.197 49 250.197 49Z" fill="white"/>
</svg>
