<?xml version="1.0" encoding="utf-8"?>
<svg viewBox="1.171 17.34 70.099 36.323" xmlns="http://www.w3.org/2000/svg">
    <path d="M 66.766 31.893 L 69.124 21.919 L 61.431 28.776 L 54.26 17.34 C 54.238 17.324 55.476 26.675 55.454 26.658 C 42.368 19.405 23.428 23.845 14.658 36.387 C 10.023 43.016 1.171 53.663 1.171 53.663 C 7.813 50.449 63.936 53.007 57.798 53.003 C 57.758 53.003 61.246 52.89 61.286 52.887 C 62.756 52.857 63.784 52.433 65.143 51.863 C 66.537 51.278 67.302 50.632 68.403 49.518 C 68.856 49.06 69.28 48.562 69.663 48.016 C 70.04 47.475 70.445 46.948 70.627 46.337 C 72.178 41.123 70.934 35.313 66.766 31.893 Z M 61.771 42.041 L 60.26 43.55 L 57.981 41.271 L 55.701 43.55 L 54.192 42.041 L 56.472 39.761 L 54.192 37.482 L 55.701 35.972 L 57.981 38.251 L 60.26 35.972 L 61.771 37.482 L 59.491 39.761 L 61.771 42.041 Z"
          style="fill: rgb(255, 255, 255);"/>
</svg>
