<svg width="512" height="512" viewBox="0 0 512 512" fill="none" xmlns="http://www.w3.org/2000/svg">
<path fill-rule="evenodd" clip-rule="evenodd" d="M142.397 51.2C110.347 83.2504 121.33 148.592 164.659 211C159.566 215.844 154.848 220.809 150.49 225.872C123.391 187.266 102.012 145.476 99.2921 114.284L56.6579 94.4026C38.6419 133.029 78.0104 195.557 137.924 242.147C84.8621 319.173 105.9 413.105 153.595 460.8C153.595 422.113 166.298 386.499 187.546 357.55C276.024 349.65 346.747 280.397 356.987 192.599C371.206 184.174 374.374 179.684 380.139 171.511L380.5 171L430 219L441.5 207L387.763 153.815C390.666 145.715 392.53 137.098 392.53 128C392.53 85.5808 358.149 51.2 315.73 51.2C273.311 51.2 238.93 85.5808 238.93 128C238.93 136.397 240.609 144.348 243.108 151.916L142.397 51.2ZM347 125.797L302.197 100C302.197 100 292.891 124.933 312.584 135.97C322.732 141.658 339.367 139.912 347 125.797Z" fill="url(#paint0_linear_6_7)"/>
<defs>
<linearGradient id="paint0_linear_6_7" x1="228" y1="70.5" x2="186.5" y2="498" gradientUnits="userSpaceOnUse">
<stop stop-color="#EA5455"/>
<stop offset="1" stop-color="#FEB692"/>
</linearGradient>
</defs>
</svg>
